<svg width="58" height="22" viewBox="0 0 58 22" fill="none" xmlns="http://www.w3.org/2000/svg">
<path d="M7.22385 21.0426L1.78843 7.15027C1.80401 7.35178 1.82739 7.66566 1.85856 8.09192C1.88973 8.51819 1.9248 9.01808 1.96376 9.5916C2.00273 10.1651 2.0339 10.7735 2.05728 11.4168C2.08845 12.06 2.10403 12.6994 2.10403 13.335V21.0426H0V5.02283H3.07423L8.56809 18.95C8.5525 18.6865 8.51744 18.2486 8.46289 17.6364C8.40834 17.0163 8.35769 16.2839 8.31093 15.4392C8.27197 14.5866 8.25249 13.6837 8.25249 12.7304V5.02283H10.3565V21.0426H7.22385Z" fill="white"/>
<path d="M41.3288 16.6436H35.2271L34.0114 20.6311H31.6853L36.8753 4.61131H39.7975L44.9992 20.6311H42.5444L41.3288 16.6436ZM35.7648 14.7951H40.7911L38.2896 6.47137L35.7648 14.7951Z" fill="white"/>
<path d="M58 16.1553C58 17.0853 57.7623 17.9107 57.2869 18.6315C56.8194 19.3445 56.1414 19.9064 55.253 20.3172C54.3647 20.7202 53.2815 20.9217 52.0035 20.9217C50.7722 20.9217 49.6734 20.7357 48.7071 20.3637C47.7408 19.9917 46.9187 19.4802 46.2408 18.8291L47.5616 17.3527C48.1227 17.872 48.7656 18.2827 49.4903 18.585C50.215 18.8873 51.0605 19.0384 52.0268 19.0384C52.6581 19.0384 53.2425 18.9376 53.7802 18.7361C54.3257 18.5269 54.7621 18.2169 55.0894 17.8061C55.4245 17.3876 55.592 16.8645 55.592 16.2367C55.592 15.7329 55.4907 15.3067 55.2881 14.9579C55.0933 14.6091 54.7465 14.2991 54.2478 14.0279C53.749 13.7566 53.0516 13.4892 52.1554 13.2257C51.0644 12.9002 50.1293 12.5398 49.35 12.1446C48.5786 11.7415 47.9863 11.2494 47.5733 10.6681C47.1681 10.0869 46.9655 9.37384 46.9655 8.52906C46.9655 7.69979 47.1954 6.97126 47.6551 6.34349C48.1149 5.70797 48.7461 5.21196 49.5488 4.85545C50.3592 4.49893 51.2826 4.32068 52.3191 4.32068C53.449 4.32068 54.4348 4.48343 55.2764 4.80894C56.1258 5.1267 56.8895 5.58784 57.5675 6.19236L56.2817 7.63391C55.7128 7.13014 55.0972 6.76588 54.4348 6.54113C53.7724 6.30862 53.1022 6.19236 52.4243 6.19236C51.8554 6.19236 51.3372 6.27762 50.8696 6.44812C50.4021 6.61088 50.028 6.85501 49.7475 7.18052C49.4747 7.50603 49.3384 7.92067 49.3384 8.42443C49.3384 8.8662 49.4591 9.24596 49.7007 9.56372C49.9423 9.87373 50.3514 10.1644 50.9281 10.4356C51.5047 10.6991 52.2879 10.9781 53.2776 11.2726C54.1426 11.5207 54.9335 11.8307 55.6505 12.2027C56.3674 12.5747 56.9362 13.0746 57.3571 13.7024C57.7857 14.3224 58 15.14 58 16.1553Z" fill="white"/>
<path d="M15.5489 20.9863L13.7852 20.1951L23.5662 0L25.3071 0.837159L15.5489 20.9863Z" fill="#F7C700"/>
<path d="M22.9559 20.9863L21.1921 20.1951L30.9732 0L32.7141 0.837159L22.9559 20.9863Z" fill="#F7C700"/>
</svg>
